# xmcd CD database file
#
# Track frame offsets:
#	150
#	16266
#	31304
#	49920
#	66475
#	82357
#	104988
#	122613
#	137251
#	154932
#	173989
#	193447
#
# Disc length: 3249 seconds
#
# Revision: 0
# Processed by: cddbd v1.5.2PL0 Copyright (c) Steve Scherf et al.
# Submitted via: CDex 1.70beta2
#
DISCID=b30caf0c
DTITLE=Blackwell, Carey - Cdn. ON - Betsy
DYEAR=1900
DGENRE=Country
TTITLE0=AudioTraBetsyck 01
TTITLE1=Ain't Nobody Like You
TTITLE2=Every Tear
TTITLE3=I'm Yours
TTITLE4=Memory Lane
TTITLE5=Ray of Sunshine
TTITLE6=That's All She Wrote
TTITLE7=Already Gone
TTITLE8=Forever
TTITLE9=Lonely Musician
TTITLE10=True Love Never Dies
TTITLE11=Letting Go
EXTD=
EXTT0=
EXTT1=
EXTT2=
EXTT3=
EXTT4=
EXTT5=
EXTT6=
EXTT7=
EXTT8=
EXTT9=
EXTT10=
EXTT11=
PLAYORDER=
